<mxfile host="app.diagrams.net" modified="2024-02-09T03:59:25.268Z" agent="Mozilla/5.0 (X11; Ubuntu; Linux x86_64; rv:109.0) Gecko/20100101 Firefox/116.0" version="23.1.1" etag="ISg3tsuWAWtAkEuiNppv" type="github">
  <diagram name="Page-1" id="xQlu2_72oIc6ehUZrzT1">
    <mxGraphModel>
      <root>
        <mxCell id="0" />
        <mxCell id="1" parent="0" />
      </root>
    </mxGraphModel>
  </diagram>
</mxfile>
